<?xml version="1.0" encoding="UTF-8" standalone="no"?>
<!-- Created with Inkscape (http://www.inkscape.org/) -->

<svg
   version="1.1"
   id="faviconDoor"
   width="512"
   height="512"
   viewBox="0 0 512 512"
   xmlns="http://www.w3.org/2000/svg"
   xmlns:svg="http://www.w3.org/2000/svg">
  <defs
     id="defs13" />
  <g
     id="faviconDoorLayer">
    <circle
       style="fill:#008000"
       id="faviconDoorBackground"
       cx="256"
       cy="256"
       r="256" />
    <circle
       style="fill:#ffd700"
       id="faviconDoorKnob"
       cx="256"
       cy="256"
       r="32" />
    <path
       id="faviconDoorJoins"
       style="fill:#000000;stroke-width:12"
       d="M 320,8.1699219 V 503.39844 a 256,256 0 0 0 16,-4.70508 V 12.902344 A 256,256 0 0 0 320,8.1699219 Z M 192,8.6015625 A 256,256 0 0 0 176,13.306641 V 498.69336 a 256,256 0 0 0 16,4.70508 z M 416,56.232422 V 455.19531 a 256,256 0 0 0 16,-14.07812 V 70.201172 A 256,256 0 0 0 416,56.232422 Z M 96,56.804688 A 256,256 0 0 0 80,70.882812 V 441.11719 a 256,256 0 0 0 16,14.07812 z" />
  </g>
</svg>
